# xmcd CD database file
#
# Track frame offsets:
#	151
#	24263
#	43180
#	64237
#	91118
#	116013
#
# Disc length: 1954 seconds
#
# Revision: 0
# Processed by: cddbd v1.5.1PL2 Copyright (c) Steve Scherf et al.
# Submitted via: CDex 1.51
#
DISCID=4607a006
DTITLE=長谷川　智士 - 生きる道
DYEAR=1900
DGENRE=Freestyle
TTITLE0=スタンダードスタイル
TTITLE1=MY HOME TOWN
TTITLE2=生きる道
TTITLE3=僕から君へ
TTITLE4=ベランダの上で
TTITLE5=僕ら
EXTD=
EXTT0=
EXTT1=
EXTT2=
EXTT3=
EXTT4=
EXTT5=
PLAYORDER=
